<svg width="52" height="52" viewBox="0 0 52 52" fill="none" xmlns="http://www.w3.org/2000/svg">
<path d="M48.5 26H51M42.25 9.75L44.75 7.25M26 3.5V1M9.75 9.75L7.25 7.25M3.5 26H1M21 51H31M38.5 26C38.4994 23.7465 37.8895 21.5351 36.7351 19.5998C35.5806 17.6645 33.9245 16.0773 31.9419 15.0061C29.9593 13.9349 27.724 13.4196 25.4725 13.5147C23.2211 13.6098 21.0372 14.3117 19.152 15.5463C17.2668 16.7808 15.7503 18.502 14.7632 20.5278C13.776 22.5535 13.3548 24.8085 13.5442 27.054C13.7336 29.2995 14.5265 31.452 15.8389 33.2838C17.1514 35.1157 18.9347 36.5586 21 37.46V43.5H31V37.46C33.2295 36.4866 35.1266 34.8839 36.4588 32.8483C37.791 30.8128 38.5004 28.4327 38.5 26V26Z" stroke="#7C5742" stroke-width="2" stroke-linecap="round" stroke-linejoin="round"/>
</svg>
