<svg width="80" height="80" viewBox="0 0 80 80" fill="none" xmlns="http://www.w3.org/2000/svg">
<rect width="80" height="80" fill="white"/>
<path d="M63.3337 29.9994C63.3337 34.8327 61.9003 39.2661 59.4337 42.9661C55.8337 48.2994 50.1337 52.066 43.5003 53.0327C42.367 53.2327 41.2003 53.3327 40.0003 53.3327C38.8003 53.3327 37.6337 53.2327 36.5003 53.0327C29.867 52.066 24.167 48.2994 20.567 42.9661C18.1003 39.2661 16.667 34.8327 16.667 29.9994C16.667 17.0993 27.1003 6.66602 40.0003 6.66602C52.9003 6.66602 63.3337 17.0993 63.3337 29.9994Z" stroke="#013B3F" stroke-width="1.5" stroke-linecap="round" stroke-linejoin="round"/>
<path d="M70.8329 61.5667L65.3329 62.8666C64.0996 63.1666 63.1329 64.1 62.8663 65.3334L61.6996 70.2334C61.0663 72.9 57.6663 73.7001 55.8996 71.6001L39.9996 53.3334L24.0996 71.6333C22.3329 73.7333 18.9329 72.9333 18.2996 70.2666L17.1329 65.3666C16.8329 64.1333 15.8663 63.1667 14.6663 62.9L9.16628 61.6001C6.63294 61.0001 5.73294 57.8333 7.56628 56L20.5663 43C24.1663 48.3333 29.8663 52.1001 36.4996 53.0667C37.6329 53.2667 38.7996 53.3667 39.9996 53.3667C41.1996 53.3667 42.3663 53.2667 43.4996 53.0667C50.1329 52.1001 55.8329 48.3333 59.4329 43L72.4329 56C74.2663 57.8 73.3663 60.9667 70.8329 61.5667Z" stroke="#013B3F" stroke-width="1.5" stroke-linecap="round" stroke-linejoin="round"/>
<path d="M41.9336 19.934L43.9002 23.8673C44.1669 24.4006 44.8669 24.934 45.5002 25.034L49.0669 25.634C51.3336 26.0006 51.8669 27.6673 50.2336 29.3006L47.4669 32.0673C47.0002 32.5339 46.7336 33.434 46.9002 34.1007L47.7002 37.534C48.3336 40.234 46.9002 41.3006 44.5002 39.8673L41.1669 37.9006C40.5669 37.5339 39.5669 37.5339 38.9669 37.9006L35.6336 39.8673C33.2336 41.2673 31.8002 40.234 32.4336 37.534L33.2336 34.1007C33.3669 33.4673 33.1336 32.5339 32.6669 32.0673L29.9002 29.3006C28.2669 27.6673 28.8002 26.034 31.0669 25.634L34.6336 25.034C35.2336 24.934 35.9336 24.4006 36.2002 23.8673L38.1669 19.934C39.1336 17.8007 40.8669 17.8007 41.9336 19.934Z" fill="#4D7679" stroke="#013B3F" stroke-width="1.5" stroke-linecap="round" stroke-linejoin="round"/>
</svg>
