<svg width="28" height="28" viewBox="0 0 28 28" fill="none" xmlns="http://www.w3.org/2000/svg">
<path d="M24.8889 20V13.0667C24.1111 13.2 23.3333 13.3333 22.5556 13.3333H21.7778V21.3333H6.22222V12C6.22222 8.26667 9.64444 5.33333 14 5.33333C14.1556 3.6 15.0889 2.13333 16.3333 0.933333C15.8667 0.4 14.9333 0 14 0C12.2889 0 10.8889 1.2 10.8889 2.66667V3.06667C6.22222 4.26667 3.11111 7.86667 3.11111 12V20L0 22.6667V24H28V22.6667L24.8889 20ZM10.8889 25.3333C10.8889 26.8 12.2889 28 14 28C15.7111 28 17.1111 26.8 17.1111 25.3333H10.8889ZM28 6C28 8.53333 25.5111 10.6667 22.5556 10.6667C19.6 10.6667 17.1111 8.53333 17.1111 6C17.1111 3.46667 19.6 1.33333 22.5556 1.33333C25.5111 1.33333 28 3.46667 28 6Z" fill="#555455"/>
</svg>
