<svg width="50" height="55" viewBox="0 0 50 55" fill="none" xmlns="http://www.w3.org/2000/svg">
<path d="M2.27273 54.0441C1.62879 54.0441 1.08939 53.7559 0.654545 53.1794C0.218182 52.6049 0 51.8924 0 51.0417C0 50.191 0.218182 49.4784 0.654545 48.9039C1.08939 48.3274 1.62879 48.0392 2.27273 48.0392H47.7273C48.3712 48.0392 48.9106 48.3274 49.3455 48.9039C49.7818 49.4784 50 50.191 50 51.0417C50 51.8924 49.7818 52.6049 49.3455 53.1794C48.9106 53.7559 48.3712 54.0441 47.7273 54.0441H2.27273ZM6.81818 45.0368C5.56818 45.0368 4.49849 44.4493 3.60909 43.2743C2.71818 42.0974 2.27273 40.6832 2.27273 39.0319V6.0049C2.27273 4.35355 2.71818 2.9394 3.60909 1.76244C4.49849 0.587479 5.56818 0 6.81818 0H43.1818C44.4318 0 45.5023 0.587479 46.3932 1.76244C47.2826 2.9394 47.7273 4.35355 47.7273 6.0049V39.0319C47.7273 40.6832 47.2826 42.0974 46.3932 43.2743C45.5023 44.4493 44.4318 45.0368 43.1818 45.0368H6.81818ZM6.81818 39.0319H43.1818V6.0049H6.81818V39.0319Z" fill="#7C5742"/>
</svg>
