<svg width="74" height="77" viewBox="0 0 74 77" fill="none" xmlns="http://www.w3.org/2000/svg">
<path d="M20.8333 0C9.375 0 0 8.93903 0 19.9755C0.0523092 22.629 0.592972 25.2359 1.58336 27.6099C2.57374 29.9839 3.98939 32.0664 5.72917 33.7086C5.72917 35.2068 4.85417 39.127 0 44.9449C4.9375 44.6702 9.66667 42.4479 13.4792 38.7025C15.8542 39.5265 18.3542 39.951 20.8333 39.951C32.2917 39.951 41.6667 31.0119 41.6667 19.9755C41.6667 8.93903 32.2917 0 20.8333 0ZM20.8333 34.9571C11.625 34.9571 4.16667 28.2403 4.16667 19.9755C4.16667 11.7106 11.625 4.99387 20.8333 4.99387C30.0417 4.99387 37.5 11.7106 37.5 19.9755C37.5 28.2403 30.0417 34.9571 20.8333 34.9571ZM31.25 22.4724V17.4786H27.0833V22.4724H31.25ZM22.9167 22.4724V17.4786H18.75V22.4724H22.9167ZM14.5833 22.4724V17.4786H10.4167V22.4724H14.5833Z" fill="#7C5742"/>
<path d="M31.071 31.9389C24.982 43.5725 26.3181 57.8411 34.1186 63.706C36.0218 65.063 38.1517 65.8994 40.3559 66.1554C42.5602 66.4114 44.7844 66.0808 46.8696 65.1871C47.9285 65.9833 50.2343 68.9549 51.7668 76.9749C54.1965 71.816 55.1389 65.8336 54.5177 59.9724C56.3622 57.999 57.9907 55.6863 59.3082 53.1692C65.3973 41.5357 64.0612 27.267 56.2607 21.4021C48.4601 15.5373 37.1601 20.3053 31.071 31.9389ZM55.7786 50.5154C50.8852 59.8646 42.1744 63.8676 36.3328 59.4756C30.4912 55.0836 29.7073 43.9418 34.6007 34.5927C39.4941 25.2435 48.2049 21.2405 54.0464 25.6325C59.888 30.0246 60.672 41.1663 55.7786 50.5154ZM52.49 33.305L48.9603 30.6512L46.7461 34.8816L50.2758 37.5354L52.49 33.305ZM48.0615 41.7658L44.5319 39.112L42.3177 43.3424L45.8473 45.9962L48.0615 41.7658ZM43.6331 50.2265L40.1035 47.5727L37.8893 51.8031L41.4189 54.4569L43.6331 50.2265Z" fill="#7C5742"/>
</svg>
