<svg width="50" height="50" viewBox="0 0 50 50" fill="none" xmlns="http://www.w3.org/2000/svg">
<path d="M29.5455 18.4375V13.125C30.7955 12.3958 32.0742 11.849 33.3818 11.4844C34.6879 11.1198 36.0606 10.9375 37.5 10.9375C38.4848 10.9375 39.4508 11.0417 40.3977 11.25C41.3447 11.4583 42.2727 11.7188 43.1818 12.0312V17.0312C42.2727 16.5625 41.3545 16.2115 40.4273 15.9781C39.4985 15.7427 38.5227 15.625 37.5 15.625C36.0606 15.625 34.678 15.8729 33.3523 16.3687C32.0265 16.8625 30.7576 17.5521 29.5455 18.4375ZM29.5455 35.625V30.3125C30.7955 29.5833 32.0742 29.0365 33.3818 28.6719C34.6879 28.3073 36.0606 28.125 37.5 28.125C38.4848 28.125 39.4508 28.2292 40.3977 28.4375C41.3447 28.6458 42.2727 28.9063 43.1818 29.2188V34.2188C42.2727 33.75 41.3545 33.399 40.4273 33.1656C39.4985 32.9302 38.5227 32.8125 37.5 32.8125C36.0606 32.8125 34.678 33.0469 33.3523 33.5156C32.0265 33.9844 30.7576 34.6875 29.5455 35.625ZM29.5455 27.0312V21.7188C30.7955 20.9896 32.0742 20.4427 33.3818 20.0781C34.6879 19.7135 36.0606 19.5312 37.5 19.5312C38.4848 19.5312 39.4508 19.6354 40.3977 19.8438C41.3447 20.0521 42.2727 20.3125 43.1818 20.625V25.625C42.2727 25.1562 41.3545 24.8052 40.4273 24.5719C39.4985 24.3365 38.5227 24.2188 37.5 24.2188C36.0606 24.2188 34.678 24.4667 33.3523 24.9625C32.0265 25.4562 30.7576 26.1458 29.5455 27.0312ZM12.5 37.5C14.2803 37.5 16.0136 37.7729 17.7 38.3187C19.3848 38.8667 21.0606 39.6875 22.7273 40.7812V10C21.1742 8.75 19.5265 7.8125 17.7841 7.1875C16.0417 6.5625 14.2803 6.25 12.5 6.25C11.1364 6.25 9.78258 6.43229 8.43864 6.79688C7.09318 7.16146 5.79545 7.70833 4.54545 8.4375V39.375C5.87121 38.75 7.18788 38.2812 8.49545 37.9688C9.80151 37.6562 11.1364 37.5 12.5 37.5ZM27.2727 40.7812C28.9394 39.6875 30.6159 38.8667 32.3023 38.3187C33.9871 37.7729 35.7197 37.5 37.5 37.5C38.8636 37.5 40.1992 37.6562 41.5068 37.9688C42.8129 38.2812 44.1288 38.75 45.4545 39.375V8.4375C44.2045 7.70833 42.9076 7.16146 41.5636 6.79688C40.2182 6.43229 38.8636 6.25 37.5 6.25C35.7197 6.25 33.9583 6.5625 32.2159 7.1875C30.4735 7.8125 28.8258 8.75 27.2727 10V40.7812ZM25 50C23.1818 48.0208 21.2121 46.4844 19.0909 45.3906C16.9697 44.2969 14.7727 43.75 12.5 43.75C10.9091 43.75 9.34697 44.0365 7.81364 44.6094C6.27879 45.1823 4.81061 45.9896 3.40909 47.0312C2.61364 47.6042 1.84697 47.5781 1.10909 46.9531C0.369697 46.3281 0 45.4167 0 44.2188V6.5625C0 5.98958 0.104545 5.44271 0.313636 4.92187C0.521212 4.40104 0.833333 4.01042 1.25 3.75C2.99242 2.5 4.81061 1.5625 6.70455 0.937501C8.59848 0.312501 10.5303 0 12.5 0C14.697 0 16.847 0.390625 18.95 1.17188C21.0515 1.95312 23.0682 3.125 25 4.6875C26.9318 3.125 28.9492 1.95312 31.0523 1.17188C33.1538 0.390625 35.303 0 37.5 0C39.4697 0 41.4015 0.312501 43.2955 0.937501C45.1894 1.5625 47.0076 2.5 48.75 3.75C49.1667 4.01042 49.4795 4.40104 49.6886 4.92187C49.8962 5.44271 50 5.98958 50 6.5625V44.2188C50 45.4167 49.6311 46.3281 48.8932 46.9531C48.1538 47.5781 47.3864 47.6042 46.5909 47.0312C45.1894 45.9896 43.7212 45.1823 42.1864 44.6094C40.653 44.0365 39.0909 43.75 37.5 43.75C35.2273 43.75 33.0303 44.2969 30.9091 45.3906C28.7879 46.4844 26.8182 48.0208 25 50Z" fill="#7C5742"/>
</svg>
