<svg width="40" height="41" viewBox="0 0 40 41" fill="none" xmlns="http://www.w3.org/2000/svg">
<path fill-rule="evenodd" clip-rule="evenodd" d="M20 0.844482C8.95455 0.844482 0 9.79903 0 20.8445C0 31.8899 8.95455 40.8445 20 40.8445C31.0455 40.8445 40 31.8899 40 20.8445C40 9.79903 31.0455 0.844482 20 0.844482ZM3.63636 20.8445C3.63636 24.6445 4.93273 28.1427 7.10545 30.9208C8.63133 28.917 10.5998 27.2931 12.8572 26.176C15.1145 25.0588 17.5995 24.4787 20.1182 24.4808C22.6042 24.4785 25.058 25.0436 27.2926 26.1332C29.5272 27.2227 31.4836 28.808 33.0127 30.7681C34.5881 28.7019 35.6488 26.2903 36.1071 23.7328C36.5654 21.1753 36.4081 18.5455 35.6482 16.0608C34.8883 13.5762 33.5477 11.3082 31.7372 9.44455C29.9268 7.58089 27.6986 6.17514 25.2371 5.34359C22.7755 4.51204 20.1513 4.27861 17.5816 4.66262C15.0119 5.04662 12.5705 6.03701 10.4596 7.55185C8.34863 9.06669 6.62875 11.0624 5.44223 13.3739C4.25572 15.6854 3.63669 18.2462 3.63636 20.8445ZM20 37.2081C16.2435 37.2138 12.6005 35.9215 9.68727 33.5499C10.8599 31.8713 12.4206 30.5007 14.2367 29.5548C16.0528 28.6089 18.0705 28.1158 20.1182 28.1172C22.1403 28.1156 24.1336 28.5964 25.9326 29.5198C27.7316 30.4432 29.2843 31.7824 30.4618 33.4263C27.526 35.8749 23.8229 37.2135 20 37.2081Z" fill="#261911"/>
</svg>
